<svg xmlns="http://www.w3.org/2000/svg" viewBox="0 0 64 64" role="img" aria-label="FenderBender Mutual icon">
  <!-- Background (transparent) -->
  <!-- Ground shadow -->
  <ellipse cx="32" cy="54" rx="22" ry="6" fill="#0B1B2A" opacity="0.18"/>

  <!-- Impact spark -->
  <g transform="translate(31 20)">
    <path d="M2 0 L4 4 L8 3 L5 6 L7 10 L3.5 8 L0 11 L1 7 L-3 6 L1 4 Z"
          fill="#FF5A1F"/>
  </g>

  <!-- Blue car (right/back) -->
  <g transform="translate(22 22)">
    <!-- body -->
    <path d="M10 10
             C10 6, 13 4, 18 4
             H26
             C30 4, 33 6, 34 10
             L36 16
             C36 18, 35 20, 33 20
             H9
             C7 20, 6 18, 6 16
             L8 10
             Z"
          fill="#1565D8"/>
    <!-- window -->
    <path d="M18 6 H25 C28 6, 30 7.5, 31 10 H17 C17.3 7.5, 18 6, 18 6 Z"
          fill="#E6F2FF" opacity="0.95"/>
    <!-- bumper -->
    <rect x="7" y="15.5" width="28" height="4" rx="2" fill="#0B1B2A" opacity="0.22"/>
    <!-- wheels -->
    <g>
      <circle cx="12" cy="20" r="4.2" fill="#0B1B2A"/>
      <circle cx="12" cy="20" r="2.1" fill="#E6F2FF" opacity="0.9"/>
      <circle cx="30" cy="20" r="4.2" fill="#0B1B2A"/>
      <circle cx="30" cy="20" r="2.1" fill="#E6F2FF" opacity="0.9"/>
    </g>
  </g>

  <!-- Orange car (left/front) -->
  <g transform="translate(6 24)">
    <!-- body -->
    <path d="M10 10
             C10 6, 13 4, 18 4
             H24
             C28 4, 31 6, 32 10
             L34 16
             C34 18, 33 20, 31 20
             H9
             C7 20, 6 18, 6 16
             L8 10
             Z"
          fill="#FF5A1F"/>
    <!-- window -->
    <path d="M18 6 H23 C26 6, 28 7.5, 29 10 H17 C17.3 7.5, 18 6, 18 6 Z"
          fill="#FFF3E9" opacity="0.95"/>
    <!-- bumper -->
    <rect x="7" y="15.5" width="26" height="4" rx="2" fill="#0B1B2A" opacity="0.22"/>
    <!-- wheels -->
    <g>
      <circle cx="12" cy="20" r="4.2" fill="#0B1B2A"/>
      <circle cx="12" cy="20" r="2.1" fill="#FFF3E9" opacity="0.9"/>
      <circle cx="28" cy="20" r="4.2" fill="#0B1B2A"/>
      <circle cx="28" cy="20" r="2.1" fill="#FFF3E9" opacity="0.9"/>
    </g>
  </g>

  <!-- Simple smoke puff -->
  <g transform="translate(26 10)" opacity="0.85">
    <path d="M10 10
             C8 10, 7 8.5, 7 7
             C7 5.2, 8.4 4, 10 4
             C10.2 2.3, 11.7 1, 13.4 1
             C15.2 1, 16.7 2.4, 16.8 4.2
             C18.6 4.4, 20 5.8, 20 7.6
             C20 9.2, 18.8 10.5, 17 10.5
             H10 Z"
          fill="#E6EDF5"/>
    <path d="M10 10
             C8 10, 7 8.5, 7 7
             C7 5.2, 8.4 4, 10 4
             C10.2 2.3, 11.7 1, 13.4 1
             C15.2 1, 16.7 2.4, 16.8 4.2
             C18.6 4.4, 20 5.8, 20 7.6
             C20 9.2, 18.8 10.5, 17 10.5
             H10 Z"
          fill="none" stroke="#0B1B2A" stroke-opacity="0.12"/>
  </g>
</svg>
